<?xml version="1.0" encoding="utf-8"?>
<!-- Generator: Adobe Illustrator 27.5.0, SVG Export Plug-In . SVG Version: 6.00 Build 0)  -->
<svg version="1.1" xmlns="http://www.w3.org/2000/svg" xmlns:xlink="http://www.w3.org/1999/xlink" x="0px" y="0px"
	 width="170.871px" height="99.687px" viewBox="0 0 170.871 99.687" style="enable-background:new 0 0 170.871 99.687;"
	 xml:space="preserve">
<g id="Ebene_2">
</g>
<g id="Ebene_1">
</g>
<g id="Ebene_3">
</g>
<g id="Abdecker">
	<g>
		
			<linearGradient id="SVGID_00000043433827756529051010000012872577863795315338_" gradientUnits="userSpaceOnUse" x1="47.9942" y1="53.8003" x2="56.5669" y2="68.7444">
			<stop  offset="0.0772" style="stop-color:#435761"/>
			<stop  offset="0.4607" style="stop-color:#6D838F"/>
			<stop  offset="1" style="stop-color:#C7D8E2"/>
		</linearGradient>
		<path style="fill:url(#SVGID_00000043433827756529051010000012872577863795315338_);" d="M53.879,51.74
			c-3.847,1.788-11.314,2.256-12.341,6.817c4.517,4.935,10.556,8.138,17.228,8.496V56.565C56.072,55.24,54.707,53.346,53.879,51.74z
			"/>
		
			<linearGradient id="SVGID_00000165221756892187495580000005802217214397990318_" gradientUnits="userSpaceOnUse" x1="38.2777" y1="54.657" x2="52.5898" y2="54.657">
			<stop  offset="4.514761e-04" style="stop-color:#C7D8E2"/>
			<stop  offset="0.5393" style="stop-color:#6D838F"/>
			<stop  offset="1" style="stop-color:#435761"/>
		</linearGradient>
		<path style="fill:url(#SVGID_00000165221756892187495580000005802217214397990318_);" d="M52.59,52.254L40.97,50.757l-2.693,3.527
			c0.967,1.531,2.058,2.964,3.26,4.273l0,0c0,0,0,0,0,0C42.459,54.463,48.566,53.666,52.59,52.254z"/>
		
			<linearGradient id="SVGID_00000021834713709398280770000004178135572103287223_" gradientUnits="userSpaceOnUse" x1="40.9704" y1="48.0253" x2="53.8785" y2="48.0253">
			<stop  offset="0" style="stop-color:#C7D8E2"/>
			<stop  offset="0.5393" style="stop-color:#6D838F"/>
			<stop  offset="1" style="stop-color:#435761"/>
		</linearGradient>
		<path style="fill:url(#SVGID_00000021834713709398280770000004178135572103287223_);" d="M53.879,51.74l-7.584-7.943l-5.324,6.96
			l11.619,1.497C53.05,52.092,53.484,51.923,53.879,51.74L53.879,51.74z"/>
		<rect x="96.431" y="18.311" style="fill:#D0470A;" width="46.819" height="14.569"/>
		<rect x="96.431" y="33.74" style="fill:#D0470A;" width="36.627" height="14.569"/>
		<rect x="96.431" y="49.169" style="fill:#D0470A;" width="32.671" height="14.569"/>
		<g>
			<path style="fill:#FFFFFF;" d="M104.416,21.42h1.695l-2.098,8.359h-1.722l-2.098-8.359h1.695l1.25,5.8h0.028L104.416,21.42z"/>
			<path style="fill:#FFFFFF;" d="M107.028,29.779V21.42h1.723v8.359H107.028z"/>
			<path style="fill:#FFFFFF;" d="M112.099,29.779h-1.723V21.42h2.418c0.963,0,1.69,0.189,2.181,0.567
				c0.491,0.378,0.736,1.011,0.736,1.899c0,0.34-0.035,0.629-0.104,0.868c-0.069,0.239-0.162,0.442-0.278,0.608
				c-0.116,0.166-0.246,0.299-0.389,0.4c-0.143,0.1-0.289,0.178-0.438,0.232l1.459,3.786h-1.75l-1.223-3.462
				c-0.111,0.016-0.248,0.025-0.41,0.029c-0.162,0.004-0.322,0.006-0.48,0.006V29.779z M112.099,25.171h0.612
				c0.231,0,0.428-0.019,0.59-0.058c0.162-0.039,0.294-0.108,0.396-0.208c0.102-0.1,0.176-0.233,0.223-0.4
				c0.046-0.166,0.069-0.372,0.069-0.619c0-0.494-0.097-0.832-0.292-1.013c-0.194-0.181-0.523-0.272-0.986-0.272h-0.612V25.171z"/>
			<path style="fill:#FFFFFF;" d="M118.045,22.67h-1.668v-1.25h5.057v1.25h-1.668v7.108h-1.722V22.67z"/>
			<path style="fill:#FFFFFF;" d="M122.449,21.42h1.723v6.31c0,0.61,0.306,0.915,0.917,0.915c0.612,0,0.917-0.305,0.917-0.915v-6.31
				h1.723v6.252c0,0.725-0.234,1.277-0.702,1.655c-0.468,0.378-1.114,0.567-1.938,0.567s-1.471-0.189-1.938-0.567
				c-0.468-0.378-0.702-0.93-0.702-1.655V21.42z"/>
			<path style="fill:#FFFFFF;" d="M130.396,29.779h-1.668l1.848-8.359h2.14l1.848,8.359h-1.667l-0.306-1.852h-1.889L130.396,29.779z
				 M130.951,26.676h1.389l-0.68-3.589h-0.028L130.951,26.676z"/>
			<path style="fill:#FFFFFF;" d="M135.48,29.779V21.42h1.723v7.108h2.709v1.25H135.48z"/>
		</g>
		<g>
			<path style="fill:#FFFFFF;" d="M100.259,36.854h2.556c0.926,0,1.602,0.189,2.028,0.567c0.426,0.378,0.639,0.926,0.639,1.644
				c0,0.177-0.023,0.357-0.069,0.538c-0.046,0.181-0.118,0.349-0.215,0.504c-0.097,0.154-0.222,0.293-0.375,0.417
				c-0.153,0.124-0.331,0.22-0.535,0.289c0.445,0.162,0.787,0.398,1.028,0.706c0.241,0.309,0.361,0.734,0.361,1.274
				c0,0.347-0.048,0.668-0.146,0.961c-0.097,0.294-0.252,0.548-0.466,0.764c-0.213,0.216-0.491,0.386-0.833,0.509
				c-0.343,0.124-0.76,0.185-1.25,0.185h-2.723V36.854z M101.982,40.28h0.625c0.324,0,0.597-0.091,0.82-0.272
				c0.222-0.181,0.333-0.446,0.333-0.793c0-0.787-0.375-1.181-1.125-1.181h-0.653V40.28z M101.982,44.032h0.722
				c0.463,0,0.787-0.108,0.973-0.324c0.185-0.216,0.278-0.537,0.278-0.961c0-0.432-0.107-0.754-0.32-0.966
				c-0.213-0.213-0.579-0.318-1.098-0.318h-0.556V44.032z"/>
			<path style="fill:#FFFFFF;" d="M108.65,45.212h-1.723v-8.359h2.418c0.963,0,1.69,0.189,2.181,0.567
				c0.491,0.378,0.736,1.011,0.736,1.899c0,0.34-0.035,0.629-0.104,0.868c-0.069,0.239-0.162,0.442-0.278,0.608
				c-0.116,0.166-0.246,0.299-0.389,0.4c-0.144,0.1-0.29,0.177-0.438,0.232l1.459,3.785h-1.751l-1.222-3.461
				c-0.111,0.016-0.248,0.025-0.41,0.029c-0.162,0.004-0.322,0.006-0.479,0.006V45.212z M108.65,40.605h0.611
				c0.231,0,0.428-0.02,0.59-0.058c0.162-0.039,0.294-0.108,0.396-0.208c0.102-0.1,0.176-0.233,0.222-0.4
				c0.046-0.166,0.069-0.372,0.069-0.619c0-0.494-0.097-0.832-0.292-1.013c-0.194-0.181-0.523-0.273-0.986-0.273h-0.611V40.605z"/>
			<path style="fill:#FFFFFF;" d="M114.875,45.212h-1.667l1.848-8.359h2.14l1.848,8.359h-1.667l-0.306-1.852h-1.889L114.875,45.212z
				 M115.43,42.11h1.389l-0.681-3.589h-0.028L115.43,42.11z"/>
			<path style="fill:#FFFFFF;" d="M120.279,45.212v-8.359h1.723v8.359H120.279z"/>
			<path style="fill:#FFFFFF;" d="M123.905,45.212v-8.359h1.598l2.098,4.781h0.028v-4.781h1.556v8.359h-1.5l-2.195-5.221h-0.028
				v5.221H123.905z"/>
		</g>
		<g>
			<path style="fill:#FFFFFF;" d="M101.902,53.521h-1.668v-1.25h5.057v1.25h-1.668v7.109h-1.722V53.521z"/>
			<path style="fill:#FFFFFF;" d="M109.848,52.271h1.417l1.167,5.325h0.028l0.959-5.325h1.612l-1.764,8.359h-1.445l-1.251-5.522
				h-0.028l-1.167,5.522h-1.445l-1.904-8.359h1.612l1.056,5.325h0.028L109.848,52.271z"/>
			<path style="fill:#FFFFFF;" d="M116.364,60.63v-8.359h1.723v8.359H116.364z"/>
			<path style="fill:#FFFFFF;" d="M119.99,60.63v-8.359h1.598l2.098,4.781h0.027v-4.781h1.556v8.359h-1.5l-2.195-5.221h-0.028v5.221
				H119.99z"/>
		</g>
		<path style="fill:#D0470A;" d="M79.258,58.597H62.109c-0.269,0-0.487-0.218-0.487-0.487c0-0.269,0.218-0.487,0.487-0.487h17.148
			c0.269,0,0.487,0.218,0.487,0.487C79.745,58.379,79.527,58.597,79.258,58.597z"/>
		<path style="fill:#D0470A;" d="M77.491,60.711H62.109c-0.269,0-0.487-0.218-0.487-0.487c0-0.269,0.218-0.487,0.487-0.487h15.382
			c0.269,0,0.487,0.218,0.487,0.487C77.978,60.493,77.76,60.711,77.491,60.711z"/>
		<path style="fill:#D0470A;" d="M74.784,62.824H62.109c-0.269,0-0.487-0.218-0.487-0.487c0-0.269,0.218-0.487,0.487-0.487h12.675
			c0.269,0,0.487,0.218,0.487,0.487C75.272,62.606,75.054,62.824,74.784,62.824z"/>
		<path style="fill:#D0470A;" d="M71.078,64.938h-8.969c-0.269,0-0.487-0.218-0.487-0.487s0.218-0.487,0.487-0.487h8.969
			c0.269,0,0.487,0.218,0.487,0.487S71.347,64.938,71.078,64.938z"/>
		<path style="fill:#D0470A;" d="M63.23,67.051h-1.121c-0.269,0-0.487-0.218-0.487-0.487c0-0.269,0.218-0.487,0.487-0.487h1.121
			c0.269,0,0.487,0.218,0.487,0.487C63.718,66.833,63.5,67.051,63.23,67.051z"/>
		<path style="fill:#D0470A;" d="M63.785,15.228h-1.891c-0.157,0-0.284-0.127-0.284-0.284s0.127-0.284,0.284-0.284h1.891
			c0.157,0,0.284,0.127,0.284,0.284S63.942,15.228,63.785,15.228z"/>
		<path style="fill:#D0470A;" d="M73.263,17.391H61.894c-0.157,0-0.284-0.127-0.284-0.284c0-0.157,0.127-0.284,0.284-0.284h11.368
			c0.157,0,0.284,0.127,0.284,0.284C73.547,17.263,73.42,17.391,73.263,17.391z"/>
		<path style="fill:#D0470A;" d="M77.606,19.553H61.894c-0.157,0-0.284-0.127-0.284-0.284s0.127-0.284,0.284-0.284h15.712
			c0.157,0,0.284,0.127,0.284,0.284S77.763,19.553,77.606,19.553z"/>
		<path style="fill:#D0470A;" d="M80.547,21.716H61.894c-0.157,0-0.284-0.127-0.284-0.284c0-0.157,0.127-0.284,0.284-0.284h18.653
			c0.157,0,0.284,0.127,0.284,0.284C80.831,21.589,80.704,21.716,80.547,21.716z"/>
		<path style="fill:#D0470A;" d="M82.449,23.879H67.008c-0.157,0-0.284-0.127-0.284-0.284c0-0.157,0.127-0.284,0.284-0.284h15.442
			c0.157,0,0.284,0.127,0.284,0.284C82.733,23.752,82.606,23.879,82.449,23.879z"/>
		<path style="fill:#D0470A;" d="M84.015,26.042H68.701c-0.157,0-0.284-0.127-0.284-0.284c0-0.157,0.127-0.284,0.284-0.284h15.313
			c0.157,0,0.284,0.127,0.284,0.284C84.299,25.915,84.172,26.042,84.015,26.042z"/>
		<path style="fill:#D0470A;" d="M85.142,28.205h-15.86c-0.157,0-0.284-0.127-0.284-0.284c0-0.157,0.127-0.284,0.284-0.284h15.86
			c0.157,0,0.284,0.127,0.284,0.284C85.426,28.077,85.299,28.205,85.142,28.205z"/>
		<path style="fill:#D0470A;" d="M85.924,30.367H69.463c-0.157,0-0.284-0.127-0.284-0.284c0-0.157,0.127-0.284,0.284-0.284h16.462
			c0.157,0,0.284,0.127,0.284,0.284C86.209,30.24,86.081,30.367,85.924,30.367z"/>
		<path style="fill:#D0470A;" d="M86.414,32.53H69.412c-0.157,0-0.284-0.127-0.284-0.284c0-0.157,0.127-0.284,0.284-0.284h17.001
			c0.157,0,0.284,0.127,0.284,0.284C86.698,32.403,86.571,32.53,86.414,32.53z"/>
		<path style="fill:#D0470A;" d="M86.689,34.693H70.411c-0.157,0-0.284-0.127-0.284-0.284s0.127-0.284,0.284-0.284h16.278
			c0.157,0,0.284,0.127,0.284,0.284S86.846,34.693,86.689,34.693z"/>
		<path style="fill:#D0470A;" d="M86.809,36.856H69.527c-0.157,0-0.284-0.127-0.284-0.284s0.127-0.284,0.284-0.284h17.282
			c0.157,0,0.284,0.127,0.284,0.284S86.966,36.856,86.809,36.856z"/>
		<path style="fill:#D0470A;" d="M86.788,39.018H68.35c-0.157,0-0.284-0.127-0.284-0.284c0-0.157,0.127-0.284,0.284-0.284h18.438
			c0.157,0,0.284,0.127,0.284,0.284C87.072,38.891,86.945,39.018,86.788,39.018z"/>
		<path style="fill:#D0470A;" d="M86.622,41.181H67.804c-0.157,0-0.284-0.127-0.284-0.284c0-0.157,0.127-0.284,0.284-0.284h18.818
			c0.157,0,0.284,0.127,0.284,0.284C86.906,41.054,86.779,41.181,86.622,41.181z"/>
		<path style="fill:#D0470A;" d="M86.303,43.344H67.04c-0.157,0-0.284-0.127-0.284-0.284c0-0.157,0.127-0.284,0.284-0.284h19.263
			c0.157,0,0.284,0.127,0.284,0.284C86.587,43.217,86.46,43.344,86.303,43.344z"/>
		<path style="fill:#D0470A;" d="M85.835,45.507H65.363c-0.157,0-0.284-0.127-0.284-0.284s0.127-0.284,0.284-0.284h20.471
			c0.157,0,0.284,0.127,0.284,0.284S85.992,45.507,85.835,45.507z"/>
		<path style="fill:#D0470A;" d="M85.2,47.67H64.515c-0.157,0-0.284-0.127-0.284-0.284s0.127-0.284,0.284-0.284H85.2
			c0.157,0,0.284,0.127,0.284,0.284S85.357,47.67,85.2,47.67z"/>
		<path style="fill:#D0470A;" d="M84.394,49.832h-19.95c-0.157,0-0.284-0.127-0.284-0.284s0.127-0.284,0.284-0.284h19.95
			c0.157,0,0.284,0.127,0.284,0.284S84.551,49.832,84.394,49.832z"/>
		<path style="fill:#D0470A;" d="M83.4,51.995H66.7c-0.157,0-0.284-0.127-0.284-0.284c0-0.157,0.127-0.284,0.284-0.284h16.7
			c0.157,0,0.284,0.127,0.284,0.284C83.684,51.868,83.557,51.995,83.4,51.995z"/>
		
			<linearGradient id="SVGID_00000000184773485042108230000006294215144874259880_" gradientUnits="userSpaceOnUse" x1="49.8456" y1="17.9135" x2="58.7675" y2="17.9135">
			<stop  offset="0" style="stop-color:#C7D8E2"/>
			<stop  offset="0.5393" style="stop-color:#6D838F"/>
			<stop  offset="1" style="stop-color:#435761"/>
		</linearGradient>
		<path style="fill:url(#SVGID_00000000184773485042108230000006294215144874259880_);" d="M58.768,20.672v-0.585l-2.459-2.43
			l-2.531-2.501c-0.989,0.166-1.964,0.374-2.92,0.62l-1.012,1.739L58.768,20.672z"/>
		
			<linearGradient id="SVGID_00000143602516903267073360000011820152442098231692_" gradientUnits="userSpaceOnUse" x1="53.7776" y1="17.3737" x2="58.7675" y2="17.3737">
			<stop  offset="0" style="stop-color:#C7D8E2"/>
			<stop  offset="0.5393" style="stop-color:#6D838F"/>
			<stop  offset="1" style="stop-color:#435761"/>
		</linearGradient>
		<path style="fill:url(#SVGID_00000143602516903267073360000011820152442098231692_);" d="M53.778,15.155l4.99,4.931v-5.426
			C57.083,14.715,55.412,14.881,53.778,15.155z"/>
		
			<linearGradient id="SVGID_00000152985831283464339090000010856136933519460282_" gradientUnits="userSpaceOnUse" x1="31.9549" y1="40.4217" x2="40.5099" y2="40.4217">
			<stop  offset="0" style="stop-color:#C7D8E2"/>
			<stop  offset="0.5393" style="stop-color:#6D838F"/>
			<stop  offset="1" style="stop-color:#435761"/>
		</linearGradient>
		<path style="fill:url(#SVGID_00000152985831283464339090000010856136933519460282_);" d="M31.955,44.414
			c0.04,0.178,0.089,0.353,0.132,0.53l8.423-5.066l-3.596-3.979L31.955,44.414z"/>
		
			<linearGradient id="SVGID_00000010294577456027178810000002702311949411504007_" gradientUnits="userSpaceOnUse" x1="35.2163" y1="45.3176" x2="45.9343" y2="45.3176">
			<stop  offset="0" style="stop-color:#C7D8E2"/>
			<stop  offset="0.5393" style="stop-color:#6D838F"/>
			<stop  offset="0.9981" style="stop-color:#435761"/>
		</linearGradient>
		<path style="fill:url(#SVGID_00000010294577456027178810000002702311949411504007_);" d="M36.06,50.101l4.91,0.656l5.324-6.96
			l-3.541-3.919l-8.423,5.066C34.768,46.731,35.342,48.454,36.06,50.101z"/>
		
			<linearGradient id="SVGID_00000172430655202655956070000017630205994064774552_" gradientUnits="userSpaceOnUse" x1="740.1563" y1="207.1428" x2="745.9153" y2="207.1428" gradientTransform="matrix(0.9684 0.2494 -0.2494 0.9684 -636.5073 -348.1859)">
			<stop  offset="0" style="stop-color:#C7D8E2"/>
			<stop  offset="0.5393" style="stop-color:#6D838F"/>
			<stop  offset="1" style="stop-color:#435761"/>
		</linearGradient>
		<path style="fill:url(#SVGID_00000172430655202655956070000017630205994064774552_);" d="M31.099,30.416
			c-0.338,0.602-0.647,1.233-0.926,1.895c-1.623,3.848-2.44,7.814-2.552,11.694l6.926-7.009L31.099,30.416z"/>
		
			<linearGradient id="SVGID_00000120553442876668870600000004058262888741968282_" gradientUnits="userSpaceOnUse" x1="42.14" y1="26.4194" x2="58.7675" y2="26.4194">
			<stop  offset="0" style="stop-color:#C7D8E2"/>
			<stop  offset="0.5393" style="stop-color:#6D838F"/>
			<stop  offset="1" style="stop-color:#435761"/>
		</linearGradient>
		<path style="fill:url(#SVGID_00000120553442876668870600000004058262888741968282_);" d="M51.311,32.906
			c-0.25-2.485-0.197-6.105,1.032-7.985c1.114-1.705,3.094-2.932,6.418-3.281c0.002,0,0.004,0,0.007-0.001v-0.967l-8.922-3.157
			L42.14,30.761l8.169,4.441l0.221,0.122c-0.187-0.419-0.313-0.988-0.314-1.395C50.217,32.888,50.781,32.603,51.311,32.906z"/>
		
			<linearGradient id="SVGID_00000129191794073737514690000004467568171435235473_" gradientUnits="userSpaceOnUse" x1="42.7535" y1="39.4997" x2="51.4417" y2="39.4997">
			<stop  offset="0" style="stop-color:#C7D8E2"/>
			<stop  offset="0.5393" style="stop-color:#6D838F"/>
			<stop  offset="1" style="stop-color:#435761"/>
		</linearGradient>
		<path style="fill:url(#SVGID_00000129191794073737514690000004467568171435235473_);" d="M42.753,39.878l3.541,3.919l5.147-6.754
			c-0.328-0.565-0.706-1.226-0.911-1.718l-0.221-0.122L42.753,39.878z"/>
		
			<linearGradient id="SVGID_00000032629939371061825930000006542384397906456998_" gradientUnits="userSpaceOnUse" x1="46.2943" y1="44.3912" x2="56.2577" y2="44.3912">
			<stop  offset="0" style="stop-color:#C7D8E2"/>
			<stop  offset="0.5393" style="stop-color:#6D838F"/>
			<stop  offset="1" style="stop-color:#435761"/>
		</linearGradient>
		<path style="fill:url(#SVGID_00000032629939371061825930000006542384397906456998_);" d="M55.822,45.715
			c-0.119-0.117-0.3-0.295-0.415-0.409c-0.864-0.859-1.512-1.603-2.024-2.775c-0.401-0.917-0.846-3.074-1.145-4.125
			c-0.189-0.32-0.376-0.638-0.558-0.954c-0.073-0.126-0.154-0.265-0.238-0.409l-5.147,6.754l7.584,7.943l0,0
			c0.636-0.244,1.188-0.475,1.578-0.679C56.761,50.379,56.158,46.988,55.822,45.715z"/>
		
			<linearGradient id="SVGID_00000171714845076541439040000012944531240876225190_" gradientUnits="userSpaceOnUse" x1="36.0604" y1="52.1925" x2="40.9705" y2="52.1925">
			<stop  offset="0" style="stop-color:#C7D8E2"/>
			<stop  offset="0.5393" style="stop-color:#6D838F"/>
			<stop  offset="1" style="stop-color:#435761"/>
		</linearGradient>
		<path style="fill:url(#SVGID_00000171714845076541439040000012944531240876225190_);" d="M36.06,50.101
			c0.637,1.461,1.381,2.859,2.217,4.183l2.693-3.527L36.06,50.101z"/>
		
			<linearGradient id="SVGID_00000026847285127402293610000011280032892476815022_" gradientUnits="userSpaceOnUse" x1="35.4096" y1="23.7596" x2="49.8455" y2="23.7596">
			<stop  offset="0" style="stop-color:#C7D8E2"/>
			<stop  offset="0.5393" style="stop-color:#6D838F"/>
			<stop  offset="1" style="stop-color:#435761"/>
		</linearGradient>
		<path style="fill:url(#SVGID_00000026847285127402293610000011280032892476815022_);" d="M42.14,30.761l7.706-13.247l-2.143-0.756
			c-5.402,2.013-9.894,5.464-12.293,10.339L42.14,30.761z"/>
		
			<linearGradient id="SVGID_00000002360998699875865890000012696597235470536380_" gradientUnits="userSpaceOnUse" x1="47.7023" y1="16.6449" x2="50.8572" y2="16.6449">
			<stop  offset="0" style="stop-color:#C7D8E2"/>
			<stop  offset="0.5393" style="stop-color:#6D838F"/>
			<stop  offset="1" style="stop-color:#435761"/>
		</linearGradient>
		<path style="fill:url(#SVGID_00000002360998699875865890000012696597235470536380_);" d="M49.846,17.514l1.012-1.739
			c-1.078,0.278-2.134,0.601-3.155,0.982L49.846,17.514z"/>
		
			<linearGradient id="SVGID_00000166666064222020538360000003885380400957143711_" gradientUnits="userSpaceOnUse" x1="39.1439" y1="35.3196" x2="50.3092" y2="35.3196">
			<stop  offset="0" style="stop-color:#C7D8E2"/>
			<stop  offset="0.5393" style="stop-color:#6D838F"/>
			<stop  offset="0.9981" style="stop-color:#435761"/>
		</linearGradient>
		<polygon style="fill:url(#SVGID_00000166666064222020538360000003885380400957143711_);" points="39.157,35.899 39.144,35.884 
			39.157,35.899 42.753,39.878 50.309,35.203 42.14,30.761 		"/>
		
			<linearGradient id="SVGID_00000152230426394999289880000015262863884513410736_" gradientUnits="userSpaceOnUse" x1="32.266" y1="31.4532" x2="40.2278" y2="31.4532">
			<stop  offset="0" style="stop-color:#C7D8E2"/>
			<stop  offset="0.5393" style="stop-color:#6D838F"/>
			<stop  offset="1" style="stop-color:#435761"/>
		</linearGradient>
		<path style="fill:url(#SVGID_00000152230426394999289880000015262863884513410736_);" d="M40.228,30.716L40.228,30.716
			l-6.73-3.664c-0.521,1.059-0.924,2.15-1.231,3.291c0.013,0.015,4.967,5.498,4.979,5.512L40.228,30.716z"/>
		<path style="fill:#D0470A;" d="M82.193,53.599h-7.759h-0.157c-0.503,0-0.812-0.198-1.418-0.202v-0.001h-7.275
			c-0.269,0-0.487,0.218-0.487,0.487c0,0.269,0.218,0.487,0.487,0.487h7.074l0,0c0.041,0,0.123,0,0.181,0c0,0,0,0,0,0h0.02v-0.001
			c0.606-0.005,0.915-0.202,1.418-0.202h0.157h7.759c0.157,0,0.284-0.127,0.284-0.284C82.477,53.726,82.349,53.599,82.193,53.599z"
			/>
		<path style="fill:#D0470A;" d="M80.735,55.712h-2.172h-0.157c-0.503,0-0.812-0.198-1.418-0.202v-0.001h-13.95
			c-0.269,0-0.487,0.218-0.487,0.487c0,0.269,0.218,0.487,0.487,0.487h13.748l0,0c0.041,0,0.123,0,0.181,0c0,0,0,0,0,0h0.02v-0.001
			c0.606-0.005,0.915-0.202,1.418-0.202h0.157h2.172c0.157,0,0.284-0.127,0.284-0.284S80.892,55.712,80.735,55.712z"/>
	</g>
	<g>
		<path style="fill:#99461C;" d="M31.882,85.117h-0.979l1.085-4.907h1.256l1.085,4.907H33.35l-0.18-1.088h-1.109L31.882,85.117z
			 M32.208,83.295h0.816l-0.4-2.107h-0.016L32.208,83.295z"/>
		<path style="fill:#99461C;" d="M38.79,80.21h0.995l-1.232,4.907h-1.011l-1.232-4.907h0.995l0.734,3.405h0.016L38.79,80.21z"/>
		<path style="fill:#99461C;" d="M40.487,85.117V80.21h1.011v4.907H40.487z"/>
		<path style="fill:#99461C;" d="M43.627,85.117h-1.011V80.21h1.419c0.565,0,0.992,0.111,1.281,0.333
			c0.288,0.222,0.432,0.594,0.432,1.115c0,0.199-0.02,0.369-0.061,0.51s-0.095,0.26-0.163,0.357
			c-0.068,0.097-0.144,0.176-0.228,0.234c-0.084,0.059-0.17,0.104-0.257,0.136l0.856,2.223h-1.028l-0.718-2.032
			c-0.065,0.009-0.145,0.015-0.241,0.017c-0.095,0.002-0.189,0.003-0.281,0.003V85.117z M43.627,82.412h0.359
			c0.136,0,0.251-0.011,0.347-0.034c0.095-0.023,0.172-0.064,0.232-0.123c0.06-0.059,0.103-0.137,0.13-0.234
			s0.041-0.219,0.041-0.364c0-0.29-0.057-0.488-0.171-0.595c-0.114-0.106-0.307-0.159-0.579-0.159h-0.359V82.412z"/>
		<path style="fill:#99461C;" d="M47.281,80.944h-0.979V80.21h2.969v0.734h-0.979v4.173h-1.011V80.944z"/>
		<path style="fill:#99461C;" d="M49.866,80.21h1.011v3.704c0,0.358,0.179,0.537,0.538,0.537s0.538-0.179,0.538-0.537V80.21h1.011
			v3.67c0,0.426-0.137,0.75-0.412,0.972c-0.275,0.222-0.654,0.333-1.138,0.333s-0.863-0.111-1.138-0.333
			c-0.274-0.222-0.412-0.546-0.412-0.972V80.21z"/>
		<path style="fill:#99461C;" d="M54.532,85.117h-0.979l1.085-4.907h1.256l1.085,4.907H56l-0.18-1.088h-1.109L54.532,85.117z
			 M54.858,83.295h0.816l-0.4-2.107h-0.016L54.858,83.295z"/>
		<path style="fill:#99461C;" d="M57.517,85.117V80.21h1.011v4.173h1.591v0.734H57.517z"/>
		<path style="fill:#99461C;" d="M62.549,80.21h1.501c0.544,0,0.941,0.111,1.191,0.333c0.25,0.222,0.375,0.544,0.375,0.965
			c0,0.104-0.013,0.209-0.041,0.316c-0.027,0.106-0.069,0.205-0.126,0.295c-0.057,0.091-0.131,0.172-0.22,0.245
			c-0.09,0.073-0.194,0.129-0.314,0.17c0.261,0.095,0.462,0.233,0.604,0.415c0.141,0.181,0.212,0.43,0.212,0.748
			c0,0.204-0.029,0.392-0.086,0.564c-0.057,0.172-0.148,0.322-0.273,0.449c-0.125,0.127-0.288,0.227-0.489,0.299
			c-0.201,0.073-0.446,0.109-0.734,0.109h-1.599V80.21z M63.56,82.222h0.367c0.19,0,0.351-0.053,0.481-0.159
			c0.13-0.106,0.196-0.262,0.196-0.466c0-0.462-0.22-0.693-0.661-0.693H63.56V82.222z M63.56,84.424h0.424
			c0.272,0,0.462-0.064,0.571-0.19c0.109-0.127,0.163-0.315,0.163-0.565c0-0.253-0.063-0.443-0.188-0.567
			c-0.125-0.124-0.34-0.187-0.644-0.187H63.56V84.424z"/>
		<path style="fill:#99461C;" d="M67.476,85.117h-1.011V80.21h1.419c0.565,0,0.992,0.111,1.281,0.333
			c0.288,0.222,0.432,0.594,0.432,1.115c0,0.199-0.02,0.369-0.061,0.51s-0.095,0.26-0.163,0.357
			c-0.068,0.097-0.144,0.176-0.228,0.234c-0.084,0.059-0.17,0.104-0.257,0.136l0.856,2.223h-1.028l-0.718-2.032
			c-0.065,0.009-0.145,0.015-0.241,0.017c-0.095,0.002-0.189,0.003-0.281,0.003V85.117z M67.476,82.412h0.359
			c0.136,0,0.251-0.011,0.347-0.034c0.095-0.023,0.172-0.064,0.232-0.123c0.06-0.059,0.103-0.137,0.13-0.234
			s0.041-0.219,0.041-0.364c0-0.29-0.057-0.488-0.171-0.595c-0.114-0.106-0.307-0.159-0.579-0.159h-0.359V82.412z"/>
		<path style="fill:#99461C;" d="M71.13,85.117h-0.979l1.085-4.907h1.256l1.085,4.907h-0.979l-0.18-1.088h-1.109L71.13,85.117z
			 M71.456,83.295h0.816l-0.4-2.107h-0.016L71.456,83.295z"/>
		<path style="fill:#99461C;" d="M74.302,85.117V80.21h1.011v4.907H74.302z"/>
		<path style="fill:#99461C;" d="M76.431,85.117V80.21h0.938l1.232,2.807h0.016V80.21h0.913v4.907H78.65l-1.289-3.065h-0.017v3.065
			H76.431z"/>
		<path style="fill:#99461C;" d="M82.32,85.117V80.21h2.822v0.734h-1.811v1.264h1.354v0.734h-1.354v2.175H82.32z"/>
		<path style="fill:#99461C;" d="M85.615,81.399c0-0.172,0.031-0.335,0.094-0.489c0.063-0.154,0.158-0.288,0.286-0.401
			c0.128-0.113,0.288-0.203,0.481-0.269c0.193-0.065,0.423-0.098,0.689-0.098c0.266,0,0.496,0.033,0.689,0.098
			c0.193,0.066,0.354,0.156,0.481,0.269c0.128,0.114,0.223,0.247,0.286,0.401c0.062,0.154,0.094,0.317,0.094,0.489v2.529
			c0,0.172-0.031,0.335-0.094,0.49c-0.063,0.154-0.158,0.288-0.286,0.401c-0.128,0.114-0.288,0.203-0.481,0.269
			c-0.193,0.065-0.423,0.098-0.689,0.098c-0.266,0-0.496-0.033-0.689-0.098c-0.193-0.065-0.354-0.155-0.481-0.269
			c-0.128-0.113-0.223-0.247-0.286-0.401c-0.062-0.154-0.094-0.317-0.094-0.49V81.399z M86.626,83.908
			c0,0.186,0.038,0.323,0.114,0.411c0.076,0.088,0.217,0.133,0.424,0.133c0.206,0,0.348-0.044,0.424-0.133
			c0.076-0.088,0.114-0.225,0.114-0.411V81.42c0-0.186-0.038-0.323-0.114-0.411c-0.076-0.088-0.218-0.133-0.424-0.133
			c-0.207,0-0.348,0.044-0.424,0.133c-0.076,0.088-0.114,0.226-0.114,0.411V83.908z"/>
		<path style="fill:#99461C;" d="M90.704,85.117h-1.011V80.21h1.419c0.565,0,0.992,0.111,1.281,0.333
			c0.288,0.222,0.432,0.594,0.432,1.115c0,0.199-0.02,0.369-0.061,0.51s-0.095,0.26-0.163,0.357s-0.144,0.176-0.228,0.234
			c-0.084,0.059-0.17,0.104-0.257,0.136l0.856,2.223h-1.028l-0.718-2.032c-0.065,0.009-0.145,0.015-0.241,0.017
			c-0.095,0.002-0.189,0.003-0.281,0.003V85.117z M90.704,82.412h0.359c0.136,0,0.251-0.011,0.347-0.034
			c0.095-0.023,0.172-0.064,0.233-0.123c0.06-0.059,0.103-0.137,0.13-0.234c0.027-0.097,0.041-0.219,0.041-0.364
			c0-0.29-0.057-0.488-0.171-0.595c-0.114-0.106-0.307-0.159-0.579-0.159h-0.359V82.412z"/>
		<path style="fill:#99461C;" d="M95.582,85.117V80.21h2.708v0.734h-1.697v1.264h1.305v0.734h-1.305v1.441h1.811v0.734H95.582z"/>
		<path style="fill:#99461C;" d="M101.267,80.21h0.995l-1.232,4.907h-1.011l-1.232-4.907h0.995l0.734,3.405h0.016L101.267,80.21z"/>
		<path style="fill:#99461C;" d="M102.824,85.117V80.21h2.708v0.734h-1.697v1.264h1.305v0.734h-1.305v1.441h1.811v0.734H102.824z"/>
		<path style="fill:#99461C;" d="M107.457,85.117h-1.011V80.21h1.419c0.565,0,0.992,0.111,1.281,0.333
			c0.288,0.222,0.432,0.594,0.432,1.115c0,0.199-0.02,0.369-0.061,0.51s-0.095,0.26-0.163,0.357s-0.144,0.176-0.228,0.234
			c-0.084,0.059-0.17,0.104-0.257,0.136l0.856,2.223h-1.028l-0.718-2.032c-0.065,0.009-0.145,0.015-0.241,0.017
			c-0.095,0.002-0.189,0.003-0.281,0.003V85.117z M107.457,82.412h0.359c0.136,0,0.251-0.011,0.347-0.034
			c0.095-0.023,0.172-0.064,0.232-0.123c0.06-0.059,0.103-0.137,0.13-0.234s0.041-0.219,0.041-0.364c0-0.29-0.057-0.488-0.171-0.595
			c-0.114-0.106-0.307-0.159-0.579-0.159h-0.359V82.412z"/>
		<path style="fill:#99461C;" d="M112.204,85.117h-1.011v-2.039l-1.223-2.868h1.028l0.71,1.869h0.016l0.677-1.869h1.028
			l-1.223,2.868V85.117z"/>
		<path style="fill:#99461C;" d="M115.809,85.117V80.21h1.452c0.625,0,1.086,0.111,1.383,0.333c0.296,0.222,0.444,0.594,0.444,1.115
			c0,0.263-0.037,0.486-0.11,0.669c-0.074,0.184-0.185,0.333-0.334,0.449c-0.15,0.116-0.34,0.2-0.571,0.252
			s-0.502,0.078-0.812,0.078h-0.44v2.012H115.809z M116.82,82.412h0.391c0.163,0,0.3-0.011,0.412-0.034
			c0.111-0.023,0.201-0.064,0.269-0.123c0.068-0.059,0.115-0.137,0.143-0.234c0.027-0.097,0.041-0.219,0.041-0.364
			s-0.014-0.266-0.041-0.364c-0.027-0.097-0.075-0.174-0.143-0.231c-0.068-0.057-0.158-0.097-0.269-0.122
			c-0.112-0.025-0.249-0.037-0.412-0.037h-0.391V82.412z"/>
		<path style="fill:#99461C;" d="M120.148,85.117h-0.979l1.085-4.907h1.256l1.085,4.907h-0.979l-0.18-1.088h-1.109L120.148,85.117z
			 M120.474,83.295h0.816l-0.4-2.107h-0.016L120.474,83.295z"/>
		<path style="fill:#99461C;" d="M123.468,80.944h-0.979V80.21h2.969v0.734h-0.979v4.173h-1.011V80.944z"/>
		<path style="fill:#99461C;" d="M126.192,85.117V80.21h1.011v4.907H126.192z"/>
		<path style="fill:#99461C;" d="M128.321,85.117V80.21h2.708v0.734h-1.697v1.264h1.305v0.734h-1.305v1.441h1.811v0.734H128.321z"/>
		<path style="fill:#99461C;" d="M131.942,85.117V80.21h0.938l1.232,2.807h0.016V80.21h0.913v4.907h-0.881l-1.289-3.065h-0.017
			v3.065H131.942z"/>
		<path style="fill:#99461C;" d="M136.608,80.944h-0.979V80.21h2.969v0.734h-0.979v4.173h-1.011V80.944z"/>
		<path style="fill:#99461C;" d="M138.679,85.117v-0.802h0.962v0.802H138.679z"/>
	</g>
	<path style="fill:#99461C;" d="M156.017,74.632H14.854c-0.157,0-0.284-0.127-0.284-0.284s0.127-0.284,0.284-0.284h141.164
		c0.157,0,0.284,0.127,0.284,0.284S156.174,74.632,156.017,74.632z"/>
</g>
</svg>
