<?xml version="1.0" encoding="utf-8"?>
<!-- Generator: Adobe Illustrator 27.5.0, SVG Export Plug-In . SVG Version: 6.00 Build 0)  -->
<svg version="1.1" xmlns="http://www.w3.org/2000/svg" xmlns:xlink="http://www.w3.org/1999/xlink" x="0px" y="0px"
	 width="144.769px" height="81.917px" viewBox="0 0 144.769 81.917" style="enable-background:new 0 0 144.769 81.917;"
	 xml:space="preserve">
<g id="Ebene_2">
</g>
<g id="Ebene_1">
</g>
<g id="Ebene_3">
</g>
<g id="Abdecker">
	<g>
		
			<linearGradient id="SVGID_00000026844893630530780540000016553342221794804152_" gradientUnits="userSpaceOnUse" x1="34.9432" y1="53.8003" x2="43.5159" y2="68.7444">
			<stop  offset="0.0772" style="stop-color:#435761"/>
			<stop  offset="0.4607" style="stop-color:#6D838F"/>
			<stop  offset="1" style="stop-color:#C7D8E2"/>
		</linearGradient>
		<path style="fill:url(#SVGID_00000026844893630530780540000016553342221794804152_);" d="M40.828,51.74
			c-3.847,1.788-11.314,2.256-12.341,6.817c4.517,4.935,10.556,8.138,17.228,8.496V56.565C43.021,55.24,41.656,53.346,40.828,51.74z
			"/>
		
			<linearGradient id="SVGID_00000183233290378183149870000012155626308065016226_" gradientUnits="userSpaceOnUse" x1="25.2267" y1="54.657" x2="39.5389" y2="54.657">
			<stop  offset="4.514761e-04" style="stop-color:#C7D8E2"/>
			<stop  offset="0.5393" style="stop-color:#6D838F"/>
			<stop  offset="1" style="stop-color:#435761"/>
		</linearGradient>
		<path style="fill:url(#SVGID_00000183233290378183149870000012155626308065016226_);" d="M39.539,52.254l-11.619-1.497
			l-2.693,3.527c0.967,1.531,2.058,2.964,3.26,4.273l0,0c0,0,0,0,0,0C29.408,54.463,35.515,53.666,39.539,52.254z"/>
		
			<linearGradient id="SVGID_00000067922536431820462820000005525052106785244046_" gradientUnits="userSpaceOnUse" x1="27.9195" y1="48.0253" x2="40.8275" y2="48.0253">
			<stop  offset="0" style="stop-color:#C7D8E2"/>
			<stop  offset="0.5393" style="stop-color:#6D838F"/>
			<stop  offset="1" style="stop-color:#435761"/>
		</linearGradient>
		<path style="fill:url(#SVGID_00000067922536431820462820000005525052106785244046_);" d="M40.828,51.74l-7.584-7.943l-5.324,6.96
			l11.619,1.497C39.999,52.092,40.433,51.923,40.828,51.74L40.828,51.74z"/>
		<rect x="83.381" y="18.311" style="fill:#D0470A;" width="46.819" height="14.569"/>
		<rect x="83.381" y="33.74" style="fill:#D0470A;" width="36.627" height="14.569"/>
		<rect x="83.381" y="49.169" style="fill:#D0470A;" width="32.671" height="14.569"/>
		<g>
			<path style="fill:#FFFFFF;" d="M91.365,21.42h1.695l-2.098,8.359h-1.722l-2.098-8.359h1.695l1.25,5.8h0.028L91.365,21.42z"/>
			<path style="fill:#FFFFFF;" d="M93.977,29.779V21.42H95.7v8.359H93.977z"/>
			<path style="fill:#FFFFFF;" d="M99.048,29.779h-1.723V21.42h2.418c0.963,0,1.69,0.189,2.181,0.567
				c0.491,0.378,0.736,1.011,0.736,1.899c0,0.34-0.035,0.629-0.104,0.868c-0.069,0.239-0.162,0.442-0.278,0.608
				c-0.116,0.166-0.246,0.299-0.389,0.4c-0.143,0.1-0.289,0.178-0.438,0.232l1.459,3.786h-1.75l-1.223-3.462
				c-0.111,0.016-0.248,0.025-0.41,0.029c-0.162,0.004-0.322,0.006-0.48,0.006V29.779z M99.048,25.171h0.612
				c0.231,0,0.428-0.019,0.59-0.058c0.162-0.039,0.294-0.108,0.396-0.208c0.102-0.1,0.176-0.233,0.223-0.4
				c0.046-0.166,0.069-0.372,0.069-0.619c0-0.494-0.097-0.832-0.292-1.013c-0.194-0.181-0.523-0.272-0.986-0.272h-0.612V25.171z"/>
			<path style="fill:#FFFFFF;" d="M104.994,22.67h-1.668v-1.25h5.057v1.25h-1.668v7.108h-1.722V22.67z"/>
			<path style="fill:#FFFFFF;" d="M109.398,21.42h1.723v6.31c0,0.61,0.306,0.915,0.917,0.915c0.612,0,0.917-0.305,0.917-0.915v-6.31
				h1.723v6.252c0,0.725-0.234,1.277-0.702,1.655c-0.468,0.378-1.114,0.567-1.938,0.567s-1.471-0.189-1.938-0.567
				c-0.468-0.378-0.702-0.93-0.702-1.655V21.42z"/>
			<path style="fill:#FFFFFF;" d="M117.345,29.779h-1.668l1.848-8.359h2.14l1.848,8.359h-1.667l-0.306-1.852h-1.889L117.345,29.779z
				 M117.9,26.676h1.389l-0.68-3.589h-0.028L117.9,26.676z"/>
			<path style="fill:#FFFFFF;" d="M122.429,29.779V21.42h1.723v7.108h2.709v1.25H122.429z"/>
		</g>
		<g>
			<path style="fill:#FFFFFF;" d="M87.208,36.854h2.556c0.926,0,1.602,0.189,2.028,0.567c0.426,0.378,0.639,0.926,0.639,1.644
				c0,0.177-0.023,0.357-0.069,0.538c-0.046,0.181-0.118,0.349-0.215,0.504c-0.097,0.154-0.222,0.293-0.375,0.417
				c-0.153,0.124-0.331,0.22-0.535,0.289c0.445,0.162,0.787,0.398,1.028,0.706c0.241,0.309,0.361,0.734,0.361,1.274
				c0,0.347-0.048,0.668-0.146,0.961c-0.097,0.294-0.252,0.548-0.466,0.764c-0.213,0.216-0.491,0.386-0.833,0.509
				c-0.343,0.124-0.76,0.185-1.25,0.185h-2.723V36.854z M88.931,40.28h0.625c0.324,0,0.597-0.091,0.82-0.272
				c0.222-0.181,0.334-0.446,0.334-0.793c0-0.787-0.375-1.181-1.125-1.181h-0.653V40.28z M88.931,44.032h0.722
				c0.463,0,0.787-0.108,0.973-0.324c0.185-0.216,0.278-0.537,0.278-0.961c0-0.432-0.107-0.754-0.32-0.966
				c-0.213-0.213-0.579-0.318-1.098-0.318h-0.556V44.032z"/>
			<path style="fill:#FFFFFF;" d="M95.6,45.212h-1.723v-8.359h2.418c0.963,0,1.69,0.189,2.181,0.567
				c0.491,0.378,0.736,1.011,0.736,1.899c0,0.34-0.035,0.629-0.104,0.868c-0.069,0.239-0.162,0.442-0.278,0.608
				c-0.116,0.166-0.246,0.299-0.389,0.4c-0.144,0.1-0.29,0.177-0.438,0.232l1.459,3.785h-1.751l-1.222-3.461
				c-0.111,0.016-0.248,0.025-0.41,0.029c-0.162,0.004-0.322,0.006-0.479,0.006V45.212z M95.6,40.605h0.611
				c0.231,0,0.428-0.02,0.59-0.058c0.162-0.039,0.294-0.108,0.396-0.208c0.102-0.1,0.176-0.233,0.222-0.4
				c0.046-0.166,0.069-0.372,0.069-0.619c0-0.494-0.097-0.832-0.292-1.013c-0.194-0.181-0.523-0.273-0.986-0.273H95.6V40.605z"/>
			<path style="fill:#FFFFFF;" d="M101.824,45.212h-1.667l1.848-8.359h2.14l1.848,8.359h-1.667l-0.306-1.852h-1.889L101.824,45.212z
				 M102.379,42.11h1.389l-0.681-3.589h-0.028L102.379,42.11z"/>
			<path style="fill:#FFFFFF;" d="M107.228,45.212v-8.359h1.723v8.359H107.228z"/>
			<path style="fill:#FFFFFF;" d="M110.854,45.212v-8.359h1.598l2.098,4.781h0.028v-4.781h1.556v8.359h-1.5l-2.195-5.221h-0.028
				v5.221H110.854z"/>
		</g>
		<g>
			<path style="fill:#FFFFFF;" d="M88.851,53.521h-1.668v-1.25h5.057v1.25h-1.668v7.109h-1.722V53.521z"/>
			<path style="fill:#FFFFFF;" d="M96.797,52.271h1.417l1.167,5.325h0.028l0.959-5.325h1.612l-1.764,8.359H98.77l-1.251-5.522
				h-0.028l-1.167,5.522H94.88l-1.904-8.359h1.612l1.056,5.325h0.028L96.797,52.271z"/>
			<path style="fill:#FFFFFF;" d="M103.313,60.63v-8.359h1.723v8.359H103.313z"/>
			<path style="fill:#FFFFFF;" d="M106.939,60.63v-8.359h1.598l2.098,4.781h0.027v-4.781h1.556v8.359h-1.5l-2.195-5.221h-0.028
				v5.221H106.939z"/>
		</g>
		<path style="fill:#D0470A;" d="M66.207,58.597H49.058c-0.269,0-0.487-0.218-0.487-0.487c0-0.269,0.218-0.487,0.487-0.487h17.148
			c0.269,0,0.487,0.218,0.487,0.487C66.694,58.379,66.476,58.597,66.207,58.597z"/>
		<path style="fill:#D0470A;" d="M64.44,60.711H49.058c-0.269,0-0.487-0.218-0.487-0.487c0-0.269,0.218-0.487,0.487-0.487H64.44
			c0.269,0,0.487,0.218,0.487,0.487C64.927,60.493,64.709,60.711,64.44,60.711z"/>
		<path style="fill:#D0470A;" d="M61.733,62.824H49.058c-0.269,0-0.487-0.218-0.487-0.487c0-0.269,0.218-0.487,0.487-0.487h12.675
			c0.269,0,0.487,0.218,0.487,0.487C62.221,62.606,62.003,62.824,61.733,62.824z"/>
		<path style="fill:#D0470A;" d="M58.027,64.938h-8.969c-0.269,0-0.487-0.218-0.487-0.487s0.218-0.487,0.487-0.487h8.969
			c0.269,0,0.487,0.218,0.487,0.487S58.296,64.938,58.027,64.938z"/>
		<path style="fill:#D0470A;" d="M50.18,67.051h-1.121c-0.269,0-0.487-0.218-0.487-0.487c0-0.269,0.218-0.487,0.487-0.487h1.121
			c0.269,0,0.487,0.218,0.487,0.487C50.667,66.833,50.449,67.051,50.18,67.051z"/>
		<path style="fill:#D0470A;" d="M50.734,15.228h-1.891c-0.157,0-0.284-0.127-0.284-0.284s0.127-0.284,0.284-0.284h1.891
			c0.157,0,0.284,0.127,0.284,0.284S50.891,15.228,50.734,15.228z"/>
		<path style="fill:#D0470A;" d="M60.212,17.391H48.843c-0.157,0-0.284-0.127-0.284-0.284c0-0.157,0.127-0.284,0.284-0.284h11.368
			c0.157,0,0.284,0.127,0.284,0.284C60.496,17.263,60.369,17.391,60.212,17.391z"/>
		<path style="fill:#D0470A;" d="M64.555,19.553H48.843c-0.157,0-0.284-0.127-0.284-0.284s0.127-0.284,0.284-0.284h15.712
			c0.157,0,0.284,0.127,0.284,0.284S64.712,19.553,64.555,19.553z"/>
		<path style="fill:#D0470A;" d="M67.496,21.716H48.843c-0.157,0-0.284-0.127-0.284-0.284c0-0.157,0.127-0.284,0.284-0.284h18.653
			c0.157,0,0.284,0.127,0.284,0.284C67.78,21.589,67.653,21.716,67.496,21.716z"/>
		<path style="fill:#D0470A;" d="M69.398,23.879H53.957c-0.157,0-0.284-0.127-0.284-0.284c0-0.157,0.127-0.284,0.284-0.284h15.442
			c0.157,0,0.284,0.127,0.284,0.284C69.682,23.752,69.555,23.879,69.398,23.879z"/>
		<path style="fill:#D0470A;" d="M70.964,26.042H55.651c-0.157,0-0.284-0.127-0.284-0.284c0-0.157,0.127-0.284,0.284-0.284h15.313
			c0.157,0,0.284,0.127,0.284,0.284C71.248,25.915,71.121,26.042,70.964,26.042z"/>
		<path style="fill:#D0470A;" d="M72.091,28.205h-15.86c-0.157,0-0.284-0.127-0.284-0.284c0-0.157,0.127-0.284,0.284-0.284h15.86
			c0.157,0,0.284,0.127,0.284,0.284C72.375,28.077,72.248,28.205,72.091,28.205z"/>
		<path style="fill:#D0470A;" d="M72.873,30.367H56.412c-0.157,0-0.284-0.127-0.284-0.284c0-0.157,0.127-0.284,0.284-0.284h16.462
			c0.157,0,0.284,0.127,0.284,0.284C73.158,30.24,73.03,30.367,72.873,30.367z"/>
		<path style="fill:#D0470A;" d="M73.363,32.53H56.361c-0.157,0-0.284-0.127-0.284-0.284c0-0.157,0.127-0.284,0.284-0.284h17.001
			c0.157,0,0.284,0.127,0.284,0.284C73.647,32.403,73.52,32.53,73.363,32.53z"/>
		<path style="fill:#D0470A;" d="M73.638,34.693H57.36c-0.157,0-0.284-0.127-0.284-0.284s0.127-0.284,0.284-0.284h16.278
			c0.157,0,0.284,0.127,0.284,0.284S73.795,34.693,73.638,34.693z"/>
		<path style="fill:#D0470A;" d="M73.758,36.856H56.476c-0.157,0-0.284-0.127-0.284-0.284s0.127-0.284,0.284-0.284h17.282
			c0.157,0,0.284,0.127,0.284,0.284S73.915,36.856,73.758,36.856z"/>
		<path style="fill:#D0470A;" d="M73.737,39.018H55.299c-0.157,0-0.284-0.127-0.284-0.284c0-0.157,0.127-0.284,0.284-0.284h18.438
			c0.157,0,0.284,0.127,0.284,0.284C74.021,38.891,73.894,39.018,73.737,39.018z"/>
		<path style="fill:#D0470A;" d="M73.571,41.181H54.753c-0.157,0-0.284-0.127-0.284-0.284c0-0.157,0.127-0.284,0.284-0.284h18.818
			c0.157,0,0.284,0.127,0.284,0.284C73.855,41.054,73.728,41.181,73.571,41.181z"/>
		<path style="fill:#D0470A;" d="M73.252,43.344H53.989c-0.157,0-0.284-0.127-0.284-0.284c0-0.157,0.127-0.284,0.284-0.284h19.263
			c0.157,0,0.284,0.127,0.284,0.284C73.537,43.217,73.409,43.344,73.252,43.344z"/>
		<path style="fill:#D0470A;" d="M72.784,45.507H52.312c-0.157,0-0.284-0.127-0.284-0.284s0.127-0.284,0.284-0.284h20.471
			c0.157,0,0.284,0.127,0.284,0.284S72.941,45.507,72.784,45.507z"/>
		<path style="fill:#D0470A;" d="M72.149,47.67H51.464c-0.157,0-0.284-0.127-0.284-0.284s0.127-0.284,0.284-0.284h20.685
			c0.157,0,0.284,0.127,0.284,0.284S72.306,47.67,72.149,47.67z"/>
		<path style="fill:#D0470A;" d="M71.343,49.832h-19.95c-0.157,0-0.284-0.127-0.284-0.284s0.127-0.284,0.284-0.284h19.95
			c0.157,0,0.284,0.127,0.284,0.284S71.5,49.832,71.343,49.832z"/>
		<path style="fill:#D0470A;" d="M70.349,51.995h-16.7c-0.157,0-0.284-0.127-0.284-0.284c0-0.157,0.127-0.284,0.284-0.284h16.7
			c0.157,0,0.284,0.127,0.284,0.284C70.633,51.868,70.506,51.995,70.349,51.995z"/>
		
			<linearGradient id="SVGID_00000054984294002663740980000004783687865110929036_" gradientUnits="userSpaceOnUse" x1="36.7946" y1="17.9135" x2="45.7165" y2="17.9135">
			<stop  offset="0" style="stop-color:#C7D8E2"/>
			<stop  offset="0.5393" style="stop-color:#6D838F"/>
			<stop  offset="1" style="stop-color:#435761"/>
		</linearGradient>
		<path style="fill:url(#SVGID_00000054984294002663740980000004783687865110929036_);" d="M45.717,20.672v-0.585l-2.459-2.43
			l-2.531-2.501c-0.989,0.166-1.964,0.374-2.92,0.62l-1.012,1.739L45.717,20.672z"/>
		
			<linearGradient id="SVGID_00000019642541763944025410000014234531171059934398_" gradientUnits="userSpaceOnUse" x1="40.7266" y1="17.3737" x2="45.7165" y2="17.3737">
			<stop  offset="0" style="stop-color:#C7D8E2"/>
			<stop  offset="0.5393" style="stop-color:#6D838F"/>
			<stop  offset="1" style="stop-color:#435761"/>
		</linearGradient>
		<path style="fill:url(#SVGID_00000019642541763944025410000014234531171059934398_);" d="M40.727,15.155l4.99,4.931v-5.426
			C44.032,14.715,42.361,14.881,40.727,15.155z"/>
		
			<linearGradient id="SVGID_00000010298295708563605240000000214485283093520033_" gradientUnits="userSpaceOnUse" x1="18.904" y1="40.4217" x2="27.4589" y2="40.4217">
			<stop  offset="0" style="stop-color:#C7D8E2"/>
			<stop  offset="0.5393" style="stop-color:#6D838F"/>
			<stop  offset="1" style="stop-color:#435761"/>
		</linearGradient>
		<path style="fill:url(#SVGID_00000010298295708563605240000000214485283093520033_);" d="M18.904,44.414
			c0.04,0.178,0.089,0.353,0.132,0.53l8.423-5.066l-3.596-3.979L18.904,44.414z"/>
		
			<linearGradient id="SVGID_00000080192938243965861000000013694584702543102142_" gradientUnits="userSpaceOnUse" x1="22.1653" y1="45.3176" x2="32.8833" y2="45.3176">
			<stop  offset="0" style="stop-color:#C7D8E2"/>
			<stop  offset="0.5393" style="stop-color:#6D838F"/>
			<stop  offset="0.9981" style="stop-color:#435761"/>
		</linearGradient>
		<path style="fill:url(#SVGID_00000080192938243965861000000013694584702543102142_);" d="M23.009,50.101l4.91,0.656l5.324-6.96
			l-3.541-3.919l-8.423,5.066C21.717,46.731,22.291,48.454,23.009,50.101z"/>
		
			<linearGradient id="SVGID_00000052793885679875604710000008738472861244841887_" gradientUnits="userSpaceOnUse" x1="759.2703" y1="203.0673" x2="765.0294" y2="203.0673" gradientTransform="matrix(0.9684 0.2494 -0.2494 0.9684 -669.0847 -349.0064)">
			<stop  offset="0" style="stop-color:#C7D8E2"/>
			<stop  offset="0.5393" style="stop-color:#6D838F"/>
			<stop  offset="1" style="stop-color:#435761"/>
		</linearGradient>
		<path style="fill:url(#SVGID_00000052793885679875604710000008738472861244841887_);" d="M18.048,30.416
			c-0.338,0.602-0.647,1.233-0.926,1.895c-1.623,3.848-2.44,7.814-2.552,11.694l6.926-7.009L18.048,30.416z"/>
		
			<linearGradient id="SVGID_00000033341275878225986090000006308440895078797962_" gradientUnits="userSpaceOnUse" x1="29.089" y1="26.4194" x2="45.7165" y2="26.4194">
			<stop  offset="0" style="stop-color:#C7D8E2"/>
			<stop  offset="0.5393" style="stop-color:#6D838F"/>
			<stop  offset="1" style="stop-color:#435761"/>
		</linearGradient>
		<path style="fill:url(#SVGID_00000033341275878225986090000006308440895078797962_);" d="M38.26,32.906
			c-0.25-2.485-0.197-6.105,1.032-7.985c1.114-1.705,3.094-2.932,6.418-3.281c0.002,0,0.004,0,0.007-0.001v-0.967l-8.922-3.157
			l-7.706,13.247l8.169,4.441l0.221,0.122c-0.187-0.419-0.313-0.988-0.314-1.395C37.166,32.888,37.73,32.603,38.26,32.906z"/>
		
			<linearGradient id="SVGID_00000163788198401829555910000010878477741488803246_" gradientUnits="userSpaceOnUse" x1="29.7025" y1="39.4997" x2="38.3907" y2="39.4997">
			<stop  offset="0" style="stop-color:#C7D8E2"/>
			<stop  offset="0.5393" style="stop-color:#6D838F"/>
			<stop  offset="1" style="stop-color:#435761"/>
		</linearGradient>
		<path style="fill:url(#SVGID_00000163788198401829555910000010878477741488803246_);" d="M29.703,39.878l3.541,3.919l5.147-6.754
			c-0.328-0.565-0.706-1.226-0.911-1.718l-0.221-0.122L29.703,39.878z"/>
		
			<linearGradient id="SVGID_00000030454172642847194170000013172010707451895986_" gradientUnits="userSpaceOnUse" x1="33.2433" y1="44.3912" x2="43.2067" y2="44.3912">
			<stop  offset="0" style="stop-color:#C7D8E2"/>
			<stop  offset="0.5393" style="stop-color:#6D838F"/>
			<stop  offset="1" style="stop-color:#435761"/>
		</linearGradient>
		<path style="fill:url(#SVGID_00000030454172642847194170000013172010707451895986_);" d="M42.771,45.715
			c-0.119-0.117-0.3-0.295-0.415-0.409c-0.864-0.859-1.512-1.603-2.024-2.775c-0.401-0.917-0.846-3.074-1.145-4.125
			c-0.189-0.32-0.376-0.638-0.558-0.954c-0.073-0.126-0.154-0.265-0.238-0.409l-5.147,6.754l7.584,7.943l0,0
			c0.636-0.244,1.188-0.475,1.578-0.679C43.71,50.379,43.107,46.988,42.771,45.715z"/>
		
			<linearGradient id="SVGID_00000024713023446914690270000007657100492547119787_" gradientUnits="userSpaceOnUse" x1="23.0094" y1="52.1925" x2="27.9195" y2="52.1925">
			<stop  offset="0" style="stop-color:#C7D8E2"/>
			<stop  offset="0.5393" style="stop-color:#6D838F"/>
			<stop  offset="1" style="stop-color:#435761"/>
		</linearGradient>
		<path style="fill:url(#SVGID_00000024713023446914690270000007657100492547119787_);" d="M23.009,50.101
			c0.637,1.461,1.381,2.859,2.217,4.183l2.693-3.527L23.009,50.101z"/>
		
			<linearGradient id="SVGID_00000100354531004384640110000009384783146165755537_" gradientUnits="userSpaceOnUse" x1="22.3586" y1="23.7596" x2="36.7946" y2="23.7596">
			<stop  offset="0" style="stop-color:#C7D8E2"/>
			<stop  offset="0.5393" style="stop-color:#6D838F"/>
			<stop  offset="1" style="stop-color:#435761"/>
		</linearGradient>
		<path style="fill:url(#SVGID_00000100354531004384640110000009384783146165755537_);" d="M29.089,30.761l7.706-13.247
			l-2.143-0.756c-5.402,2.013-9.894,5.464-12.293,10.339L29.089,30.761z"/>
		
			<linearGradient id="SVGID_00000059286964819771137530000014814059914380534154_" gradientUnits="userSpaceOnUse" x1="34.6513" y1="16.6449" x2="37.8062" y2="16.6449">
			<stop  offset="0" style="stop-color:#C7D8E2"/>
			<stop  offset="0.5393" style="stop-color:#6D838F"/>
			<stop  offset="1" style="stop-color:#435761"/>
		</linearGradient>
		<path style="fill:url(#SVGID_00000059286964819771137530000014814059914380534154_);" d="M36.795,17.514l1.012-1.739
			c-1.078,0.278-2.134,0.601-3.155,0.982L36.795,17.514z"/>
		
			<linearGradient id="SVGID_00000179609201649228431230000004564354892025851022_" gradientUnits="userSpaceOnUse" x1="26.0929" y1="35.3196" x2="37.2583" y2="35.3196">
			<stop  offset="0" style="stop-color:#C7D8E2"/>
			<stop  offset="0.5393" style="stop-color:#6D838F"/>
			<stop  offset="0.9981" style="stop-color:#435761"/>
		</linearGradient>
		<polygon style="fill:url(#SVGID_00000179609201649228431230000004564354892025851022_);" points="26.106,35.899 26.093,35.884 
			26.106,35.899 29.703,39.878 37.258,35.203 29.089,30.761 		"/>
		
			<linearGradient id="SVGID_00000122711945821835217710000006838095837926325174_" gradientUnits="userSpaceOnUse" x1="19.215" y1="31.4532" x2="27.1768" y2="31.4532">
			<stop  offset="0" style="stop-color:#C7D8E2"/>
			<stop  offset="0.5393" style="stop-color:#6D838F"/>
			<stop  offset="1" style="stop-color:#435761"/>
		</linearGradient>
		<path style="fill:url(#SVGID_00000122711945821835217710000006838095837926325174_);" d="M27.177,30.716L27.177,30.716
			l-6.73-3.664c-0.521,1.059-0.924,2.15-1.231,3.291c0.013,0.015,4.967,5.498,4.979,5.512L27.177,30.716z"/>
		<path style="fill:#D0470A;" d="M69.142,53.599h-7.759h-0.157c-0.503,0-0.812-0.198-1.418-0.202v-0.001h-7.275
			c-0.269,0-0.487,0.218-0.487,0.487c0,0.269,0.218,0.487,0.487,0.487h7.074l0,0c0.041,0,0.123,0,0.181,0c0,0,0,0,0,0h0.02v-0.001
			c0.606-0.005,0.915-0.202,1.418-0.202h0.157h7.759c0.157,0,0.284-0.127,0.284-0.284C69.426,53.726,69.298,53.599,69.142,53.599z"
			/>
		<path style="fill:#D0470A;" d="M67.684,55.712h-2.172h-0.157c-0.503,0-0.812-0.198-1.418-0.202v-0.001h-13.95
			c-0.269,0-0.487,0.218-0.487,0.487c0,0.269,0.218,0.487,0.487,0.487h13.748l0,0c0.041,0,0.123,0,0.181,0c0,0,0,0,0,0h0.02v-0.001
			c0.606-0.005,0.915-0.202,1.418-0.202h0.157h2.172c0.157,0,0.284-0.127,0.284-0.284S67.841,55.712,67.684,55.712z"/>
	</g>
</g>
</svg>
