<?xml version="1.0" encoding="utf-8"?>
<!-- Generator: Adobe Illustrator 27.5.0, SVG Export Plug-In . SVG Version: 6.00 Build 0)  -->
<svg version="1.1" xmlns="http://www.w3.org/2000/svg" xmlns:xlink="http://www.w3.org/1999/xlink" x="0px" y="0px"
	 width="144.769px" height="81.917px" viewBox="0 0 144.769 81.917" style="enable-background:new 0 0 144.769 81.917;"
	 xml:space="preserve">
<g id="Ebene_2">
</g>
<g id="Ebene_1">
</g>
<g id="Ebene_3">
</g>
<g id="Abdecker">
	<g>
		<path style="fill:#FFFFFF;" d="M129.631,20.306v13.432H83.949V20.306H129.631 M130.2,19.737H83.381v14.569H130.2V19.737
			L130.2,19.737z"/>
		<path style="fill:#FFFFFF;" d="M119.439,34.308v13.432h-35.49V34.308H119.439 M120.007,33.74H83.381v14.569h36.627V33.74
			L120.007,33.74z"/>
		<path style="fill:#FFFFFF;" d="M115.483,48.331v13.432H83.949V48.331H115.483 M116.052,47.763H83.381v14.569h32.671V47.763
			L116.052,47.763z"/>
		<g>
			<path style="fill:#FFFFFF;" d="M91.365,22.847h1.695l-2.098,8.359h-1.723l-2.098-8.359h1.695l1.25,5.8h0.028L91.365,22.847z"/>
			<path style="fill:#FFFFFF;" d="M93.977,31.205v-8.359h1.723v8.359H93.977z"/>
			<path style="fill:#FFFFFF;" d="M99.048,31.205h-1.723v-8.359h2.418c0.963,0,1.69,0.189,2.181,0.567
				c0.491,0.378,0.736,1.011,0.736,1.899c0,0.34-0.035,0.629-0.104,0.868c-0.069,0.239-0.162,0.442-0.278,0.608
				c-0.116,0.166-0.246,0.299-0.389,0.4c-0.144,0.1-0.29,0.178-0.438,0.232l1.459,3.786h-1.751l-1.222-3.462
				c-0.111,0.016-0.248,0.025-0.41,0.029c-0.162,0.004-0.322,0.006-0.479,0.006V31.205z M99.048,26.598h0.611
				c0.231,0,0.428-0.019,0.59-0.058c0.162-0.039,0.294-0.108,0.396-0.208c0.102-0.1,0.176-0.233,0.222-0.4
				c0.046-0.166,0.069-0.372,0.069-0.619c0-0.494-0.097-0.832-0.292-1.013c-0.194-0.181-0.523-0.272-0.986-0.272h-0.611V26.598z"/>
			<path style="fill:#FFFFFF;" d="M104.994,24.097h-1.667v-1.25h5.057v1.25h-1.667v7.108h-1.723V24.097z"/>
			<path style="fill:#FFFFFF;" d="M109.398,22.847h1.723v6.31c0,0.61,0.306,0.915,0.917,0.915c0.611,0,0.917-0.305,0.917-0.915
				v-6.31h1.723v6.252c0,0.725-0.234,1.277-0.702,1.655c-0.468,0.378-1.114,0.567-1.938,0.567c-0.825,0-1.471-0.189-1.938-0.567
				c-0.468-0.378-0.702-0.93-0.702-1.655V22.847z"/>
			<path style="fill:#FFFFFF;" d="M117.345,31.205h-1.667l1.848-8.359h2.14l1.848,8.359h-1.667l-0.306-1.852h-1.889L117.345,31.205z
				 M117.9,28.103h1.389l-0.681-3.589h-0.028L117.9,28.103z"/>
			<path style="fill:#FFFFFF;" d="M122.429,31.205v-8.359h1.723v7.108h2.709v1.25H122.429z"/>
		</g>
		<g>
			<path style="fill:#FFFFFF;" d="M87.208,36.854h2.556c0.926,0,1.602,0.189,2.028,0.567c0.426,0.378,0.639,0.926,0.639,1.644
				c0,0.177-0.023,0.357-0.069,0.538c-0.046,0.181-0.118,0.349-0.215,0.504c-0.097,0.154-0.222,0.293-0.375,0.417
				c-0.153,0.124-0.331,0.22-0.535,0.289c0.445,0.162,0.787,0.398,1.028,0.706c0.241,0.309,0.361,0.734,0.361,1.274
				c0,0.347-0.048,0.668-0.146,0.961c-0.097,0.294-0.252,0.548-0.466,0.764c-0.213,0.216-0.491,0.386-0.833,0.509
				c-0.343,0.124-0.76,0.185-1.25,0.185h-2.723V36.854z M88.931,40.28h0.625c0.324,0,0.597-0.091,0.82-0.272
				c0.222-0.181,0.333-0.446,0.333-0.793c0-0.787-0.375-1.181-1.125-1.181h-0.653V40.28z M88.931,44.032h0.722
				c0.463,0,0.787-0.108,0.973-0.324c0.185-0.216,0.278-0.537,0.278-0.961c0-0.432-0.107-0.754-0.32-0.966
				c-0.213-0.213-0.579-0.318-1.098-0.318h-0.556V44.032z"/>
			<path style="fill:#FFFFFF;" d="M95.599,45.212h-1.723v-8.359h2.418c0.963,0,1.69,0.189,2.181,0.567
				c0.491,0.378,0.736,1.011,0.736,1.899c0,0.34-0.035,0.629-0.104,0.868c-0.069,0.239-0.162,0.442-0.278,0.608
				c-0.116,0.166-0.246,0.299-0.389,0.4c-0.144,0.1-0.29,0.177-0.438,0.232l1.459,3.785h-1.751l-1.222-3.461
				c-0.111,0.016-0.248,0.025-0.41,0.029c-0.162,0.004-0.322,0.006-0.479,0.006V45.212z M95.599,40.605h0.611
				c0.231,0,0.428-0.02,0.59-0.058c0.162-0.039,0.294-0.108,0.396-0.208c0.102-0.1,0.176-0.233,0.222-0.4
				c0.046-0.166,0.069-0.372,0.069-0.619c0-0.494-0.097-0.832-0.292-1.013c-0.194-0.181-0.523-0.273-0.986-0.273h-0.611V40.605z"/>
			<path style="fill:#FFFFFF;" d="M101.823,45.212h-1.667l1.848-8.359h2.14l1.848,8.359h-1.667l-0.306-1.852h-1.889L101.823,45.212z
				 M102.379,42.11h1.389l-0.681-3.589h-0.028L102.379,42.11z"/>
			<path style="fill:#FFFFFF;" d="M107.228,45.212v-8.359h1.723v8.359H107.228z"/>
			<path style="fill:#FFFFFF;" d="M110.853,45.212v-8.359h1.598l2.098,4.781h0.028v-4.781h1.556v8.359h-1.5l-2.195-5.221h-0.028
				v5.221H110.853z"/>
		</g>
		<g>
			<path style="fill:#FFFFFF;" d="M88.85,52.115h-1.667v-1.25h5.057v1.25h-1.667v7.108H88.85V52.115z"/>
			<path style="fill:#FFFFFF;" d="M96.797,50.865h1.417l1.167,5.325h0.028l0.959-5.325h1.612l-1.764,8.359H98.77l-1.25-5.522h-0.028
				l-1.167,5.522H94.88l-1.903-8.359h1.612l1.056,5.325h0.028L96.797,50.865z"/>
			<path style="fill:#FFFFFF;" d="M103.313,59.224v-8.359h1.723v8.359H103.313z"/>
			<path style="fill:#FFFFFF;" d="M106.939,59.224v-8.359h1.598l2.098,4.781h0.028v-4.781h1.556v8.359h-1.5l-2.195-5.221h-0.028
				v5.221H106.939z"/>
		</g>
		<g>
			<path style="fill:#FFFFFF;" d="M66.207,58.597H49.058c-0.269,0-0.487-0.218-0.487-0.487c0-0.269,0.218-0.487,0.487-0.487h17.148
				c0.269,0,0.487,0.218,0.487,0.487C66.694,58.379,66.476,58.597,66.207,58.597z"/>
			<path style="fill:#FFFFFF;" d="M64.44,60.711H49.058c-0.269,0-0.487-0.218-0.487-0.487c0-0.269,0.218-0.487,0.487-0.487H64.44
				c0.269,0,0.487,0.218,0.487,0.487C64.927,60.493,64.709,60.711,64.44,60.711z"/>
			<path style="fill:#FFFFFF;" d="M61.733,62.824H49.058c-0.269,0-0.487-0.218-0.487-0.487c0-0.269,0.218-0.487,0.487-0.487h12.675
				c0.269,0,0.487,0.218,0.487,0.487C62.221,62.606,62.003,62.824,61.733,62.824z"/>
			<path style="fill:#FFFFFF;" d="M58.027,64.938h-8.969c-0.269,0-0.487-0.218-0.487-0.487s0.218-0.487,0.487-0.487h8.969
				c0.269,0,0.487,0.218,0.487,0.487S58.296,64.938,58.027,64.938z"/>
			<path style="fill:#FFFFFF;" d="M50.18,67.051h-1.121c-0.269,0-0.487-0.218-0.487-0.487c0-0.269,0.218-0.487,0.487-0.487h1.121
				c0.269,0,0.487,0.218,0.487,0.487C50.667,66.833,50.449,67.051,50.18,67.051z"/>
			<path style="fill:#FFFFFF;" d="M50.734,15.228h-1.891c-0.157,0-0.284-0.127-0.284-0.284s0.127-0.284,0.284-0.284h1.891
				c0.157,0,0.284,0.127,0.284,0.284S50.891,15.228,50.734,15.228z"/>
			<path style="fill:#FFFFFF;" d="M60.212,17.391H48.843c-0.157,0-0.284-0.127-0.284-0.284c0-0.157,0.127-0.284,0.284-0.284h11.368
				c0.157,0,0.284,0.127,0.284,0.284C60.496,17.263,60.369,17.391,60.212,17.391z"/>
			<path style="fill:#FFFFFF;" d="M64.555,19.553H48.843c-0.157,0-0.284-0.127-0.284-0.284s0.127-0.284,0.284-0.284h15.712
				c0.157,0,0.284,0.127,0.284,0.284S64.712,19.553,64.555,19.553z"/>
			<path style="fill:#FFFFFF;" d="M67.496,21.716H48.843c-0.157,0-0.284-0.127-0.284-0.284c0-0.157,0.127-0.284,0.284-0.284h18.653
				c0.157,0,0.284,0.127,0.284,0.284C67.78,21.589,67.653,21.716,67.496,21.716z"/>
			<path style="fill:#FFFFFF;" d="M69.398,23.879H53.957c-0.157,0-0.284-0.127-0.284-0.284c0-0.157,0.127-0.284,0.284-0.284h15.442
				c0.157,0,0.284,0.127,0.284,0.284C69.682,23.752,69.555,23.879,69.398,23.879z"/>
			<path style="fill:#FFFFFF;" d="M70.964,26.042H55.651c-0.157,0-0.284-0.127-0.284-0.284c0-0.157,0.127-0.284,0.284-0.284h15.313
				c0.157,0,0.284,0.127,0.284,0.284C71.248,25.915,71.121,26.042,70.964,26.042z"/>
			<path style="fill:#FFFFFF;" d="M72.091,28.205h-15.86c-0.157,0-0.284-0.127-0.284-0.284c0-0.157,0.127-0.284,0.284-0.284h15.86
				c0.157,0,0.284,0.127,0.284,0.284C72.375,28.077,72.248,28.205,72.091,28.205z"/>
			<path style="fill:#FFFFFF;" d="M72.873,30.367H56.412c-0.157,0-0.284-0.127-0.284-0.284c0-0.157,0.127-0.284,0.284-0.284h16.462
				c0.157,0,0.284,0.127,0.284,0.284C73.158,30.24,73.03,30.367,72.873,30.367z"/>
			<path style="fill:#FFFFFF;" d="M73.363,32.53H56.361c-0.157,0-0.284-0.127-0.284-0.284c0-0.157,0.127-0.284,0.284-0.284h17.001
				c0.157,0,0.284,0.127,0.284,0.284C73.647,32.403,73.52,32.53,73.363,32.53z"/>
			<path style="fill:#FFFFFF;" d="M73.638,34.693H57.36c-0.157,0-0.284-0.127-0.284-0.284s0.127-0.284,0.284-0.284h16.278
				c0.157,0,0.284,0.127,0.284,0.284S73.795,34.693,73.638,34.693z"/>
			<path style="fill:#FFFFFF;" d="M73.758,36.856H56.476c-0.157,0-0.284-0.127-0.284-0.284s0.127-0.284,0.284-0.284h17.282
				c0.157,0,0.284,0.127,0.284,0.284S73.915,36.856,73.758,36.856z"/>
			<path style="fill:#FFFFFF;" d="M73.737,39.018H55.299c-0.157,0-0.284-0.127-0.284-0.284c0-0.157,0.127-0.284,0.284-0.284h18.438
				c0.157,0,0.284,0.127,0.284,0.284C74.021,38.891,73.894,39.018,73.737,39.018z"/>
			<path style="fill:#FFFFFF;" d="M73.571,41.181H54.753c-0.157,0-0.284-0.127-0.284-0.284c0-0.157,0.127-0.284,0.284-0.284h18.818
				c0.157,0,0.284,0.127,0.284,0.284C73.855,41.054,73.728,41.181,73.571,41.181z"/>
			<path style="fill:#FFFFFF;" d="M73.252,43.344H53.989c-0.157,0-0.284-0.127-0.284-0.284c0-0.157,0.127-0.284,0.284-0.284h19.263
				c0.157,0,0.284,0.127,0.284,0.284C73.537,43.217,73.409,43.344,73.252,43.344z"/>
			<path style="fill:#FFFFFF;" d="M72.784,45.507H52.312c-0.157,0-0.284-0.127-0.284-0.284s0.127-0.284,0.284-0.284h20.471
				c0.157,0,0.284,0.127,0.284,0.284S72.941,45.507,72.784,45.507z"/>
			<path style="fill:#FFFFFF;" d="M72.149,47.67H51.464c-0.157,0-0.284-0.127-0.284-0.284s0.127-0.284,0.284-0.284h20.685
				c0.157,0,0.284,0.127,0.284,0.284S72.306,47.67,72.149,47.67z"/>
			<path style="fill:#FFFFFF;" d="M71.343,49.832h-19.95c-0.157,0-0.284-0.127-0.284-0.284s0.127-0.284,0.284-0.284h19.95
				c0.157,0,0.284,0.127,0.284,0.284S71.5,49.832,71.343,49.832z"/>
			<path style="fill:#FFFFFF;" d="M70.349,51.995h-16.7c-0.157,0-0.284-0.127-0.284-0.284c0-0.157,0.127-0.284,0.284-0.284h16.7
				c0.157,0,0.284,0.127,0.284,0.284C70.633,51.868,70.506,51.995,70.349,51.995z"/>
			<path style="fill:#FFFFFF;" d="M69.142,53.599h-7.759h-0.157c-0.503,0-0.812-0.198-1.418-0.202v-0.001h-7.275
				c-0.269,0-0.487,0.218-0.487,0.487c0,0.269,0.218,0.487,0.487,0.487h7.074l0,0c0.041,0,0.123,0,0.181,0c0,0,0,0,0,0h0.02v-0.001
				c0.606-0.005,0.915-0.202,1.418-0.202h0.157h7.759c0.157,0,0.284-0.127,0.284-0.284C69.426,53.726,69.298,53.599,69.142,53.599z"
				/>
			<path style="fill:#FFFFFF;" d="M67.684,55.712h-2.172h-0.157c-0.503,0-0.812-0.198-1.418-0.202v-0.001h-13.95
				c-0.269,0-0.487,0.218-0.487,0.487c0,0.269,0.218,0.487,0.487,0.487h13.748l0,0c0.041,0,0.123,0,0.181,0c0,0,0,0,0,0h0.02v-0.001
				c0.606-0.005,0.915-0.202,1.418-0.202h0.157h2.172c0.157,0,0.284-0.127,0.284-0.284S67.841,55.712,67.684,55.712z"/>
			<g>
				<path style="fill:#FFFFFF;" d="M40.961,51.991l-0.014,0.006c-1.114,0.518-2.502,0.92-3.971,1.345
					c-3.522,1.02-7.515,2.176-8.213,5.276l-0.042,0.189c4.491,4.792,10.436,7.894,16.994,8.245V56.565
					C43.16,55.308,41.801,53.541,40.961,51.991z"/>
				<g>
					<path style="fill:#FFFFFF;" d="M18.904,44.414c0.04,0.178,0.089,0.353,0.132,0.53l8.423-5.066l-3.596-3.979L18.904,44.414z"/>
				</g>
				<g>
					<path style="fill:#FFFFFF;" d="M18.048,30.416c-0.338,0.602-0.647,1.233-0.926,1.895c-1.623,3.848-2.44,7.814-2.552,11.694
						l6.926-7.009L18.048,30.416z"/>
				</g>
				<g>
					<path style="fill:#FFFFFF;" d="M27.177,30.716L27.177,30.716l-6.73-3.664c-0.521,1.059-0.924,2.15-1.231,3.291
						c0.013,0.015,4.967,5.498,4.979,5.512L27.177,30.716z"/>
				</g>
				<path style="fill:#FFFFFF;" d="M45.717,19.687v-5.026c-1.564,0.05-3.116,0.201-4.639,0.441L45.717,19.687z"/>
				<path style="fill:#FFFFFF;" d="M34.251,16.915c-5.221,2.033-9.553,5.428-11.892,10.181l6.472,3.524l7.545-12.953L34.251,16.915z
					"/>
				<path style="fill:#FFFFFF;" d="M36.666,17.167l0.749-1.286c-0.794,0.214-1.574,0.454-2.338,0.724L36.666,17.167z"/>
				<path style="fill:#FFFFFF;" d="M36.921,17.86l-7.448,12.786l7.86,4.272c-0.102-0.338-0.167-0.703-0.167-0.989
					c0-1.041,0.564-1.327,1.094-1.023c-0.25-2.485-0.197-6.105,1.032-7.985c1.114-1.705,3.094-2.932,6.418-3.281
					c0.002,0,0.004,0,0.007-0.001v-0.666L36.921,17.86z"/>
				<path style="fill:#FFFFFF;" d="M40.387,15.219c-0.742,0.133-1.476,0.289-2.2,0.467l-0.975,1.675l8.322,2.945L40.387,15.219z"/>
				<polygon style="fill:#FFFFFF;" points="36.69,35.216 29.187,31.138 26.293,36.106 29.469,39.619 				"/>
				<path style="fill:#FFFFFF;" d="M33.22,43.347l5.017-6.571c-0.273-0.475-0.553-0.983-0.73-1.391l-7.403,4.514L33.22,43.347z"/>
				<path style="fill:#FFFFFF;" d="M23.15,50.407c0.564,1.256,1.206,2.463,1.919,3.616l2.327-3.048L23.15,50.407z"/>
				<path style="fill:#FFFFFF;" d="M27.793,50.454l5.075-6.647l-3.259-3.608l-8.253,5.032c0.4,1.576,0.909,3.101,1.529,4.567
					L27.793,50.454z"/>
				<path style="fill:#FFFFFF;" d="M28.046,51.06l-2.653,3.474c0.863,1.338,1.822,2.597,2.867,3.764
					c0.884-3.278,4.956-4.459,8.558-5.502c0.489-0.142,0.968-0.281,1.431-0.422L28.046,51.06z"/>
				<path style="fill:#FFFFFF;" d="M42.771,45.715c-0.119-0.117-0.3-0.295-0.415-0.409c-0.864-0.859-1.512-1.603-2.024-2.775
					c-0.401-0.917-0.846-3.074-1.145-4.125c-0.189-0.32-0.376-0.638-0.558-0.954c-0.026-0.046-0.055-0.095-0.083-0.143l-4.934,6.462
					l7.502,7.857c0.514-0.203,0.962-0.395,1.293-0.567C43.71,50.379,43.107,46.988,42.771,45.715z"/>
				<path style="fill:#FFFFFF;" d="M33.262,44.228l-4.818,6.31l11.061,1.426c0.293-0.104,0.568-0.213,0.834-0.325L33.262,44.228z"/>
			</g>
		</g>
	</g>
</g>
</svg>
